<svg width="131" height="131" viewBox="0 0 131 131" fill="none" xmlns="http://www.w3.org/2000/svg">
<circle cx="65.5" cy="65.5" r="65.5" fill="#EAAF49"/>
<circle cx="65.5" cy="65.5" r="57.5" fill="#9E2B2B"/>
<circle cx="65.5" cy="65.5" r="45.5" fill="white"/>
<rect x="59" y="37" width="12" height="57" rx="1" fill="url(#paint0_linear_72_29)"/>
<path d="M86.1271 77.5699V77.5699C86.1271 77.2552 85.872 77 85.5572 77H80.1575C80.0962 77.0007 74.1392 77.2494 74.1392 82.7111C74.1392 84.664 74.8066 86.0847 76.1228 86.9326C76.8586 87.4077 77.6695 87.6019 78.3083 87.6765C78.6453 87.7158 78.9061 87.8863 78.9672 88.22V88.22C79.05 88.6722 78.7911 89.2546 78.3354 89.3156C76.1171 89.6127 73 90.6502 73 94.1187C73 98.7631 78.006 98.9993 79.0093 98.9993L79.1285 98.9972L79.3131 99C79.9408 99 81.5642 98.9206 83.0782 98.1848C85.1022 97.2017 86.1292 95.4989 86.1292 93.121C86.1292 90.8036 84.5469 89.4102 83.4949 88.487C83.0322 88.0815 82.4567 87.5771 82.4567 87.3109C82.4567 87.0336 82.7912 86.7326 83.219 86.3487C83.9728 85.6771 84.9747 84.5184 84.9747 82.2366C84.9747 81.6681 84.9571 81.1105 84.8596 80.5866C84.7097 79.7811 85.272 78.8023 85.8556 78.2272C86.0235 78.0618 86.1271 77.8484 86.1271 77.5699ZM80.3519 85.3824C79.2657 85.6757 78.0597 84.5087 77.6367 82.8978C77.4152 82.0534 77.4291 81.333 77.6806 80.63C77.9057 80.0001 78.2931 79.5772 78.7724 79.4427C78.8811 79.4114 78.9947 79.3968 79.111 79.3968C80.2565 79.3968 81.0751 79.7786 81.6158 81.6799C81.8917 82.6484 81.7921 83.6991 81.3496 84.4906C81.0898 84.9574 80.7344 85.2744 80.3519 85.3824ZM76.3199 94.0637C76.2774 93.392 76.5812 92.728 77.1748 92.1908C77.8061 91.6195 78.6812 91.2642 79.6322 91.1952C79.7471 91.1875 79.8614 91.182 79.9764 91.182C81.6924 91.182 82.9528 92.1546 83.0392 93.5453C83.1277 94.9652 81.8882 96.0138 79.9541 96.1545C77.921 96.3057 76.4049 95.4202 76.3199 94.0637Z" fill="url(#paint1_linear_72_29)"/>
<defs>
<linearGradient id="paint0_linear_72_29" x1="65" y1="37" x2="65" y2="94" gradientUnits="userSpaceOnUse">
<stop stop-color="#DBAF4A"/>
<stop offset="1" stop-color="#F7892F"/>
</linearGradient>
<linearGradient id="paint1_linear_72_29" x1="79.5646" y1="77" x2="79.5646" y2="99" gradientUnits="userSpaceOnUse">
<stop stop-color="#DBAF4A"/>
<stop offset="1" stop-color="#F7892F"/>
</linearGradient>
</defs>
</svg>
